HIERARCHY
ROOT Hips
{
	OFFSET	0.00	0.00	0.00
	CHANNELS 6 Xposition Yposition Zposition Zrotation Xrotation Yrotation
	JOINT LeftUpLeg
	{
		OFFSET	 0.126116	-0.014019	-0.065224
		CHANNELS 3 Zrotation Xrotation Yrotation
		JOINT LeftLeg
		{
			OFFSET	 0.000000	 0.000000	 0.569914
			CHANNELS 3 Zrotation Xrotation Yrotation
			JOINT LeftFoot
			{
				OFFSET	 0.000000	 0.000000	 0.544423
				CHANNELS 3 Zrotation Xrotation Yrotation
				JOINT LeftToeBase
				{
					OFFSET	 0.000000	 0.000000	 0.207117
					CHANNELS 3 Zrotation Xrotation Yrotation
					End Site
					{
						OFFSET	 0.000000	 0.000000	 0.207117
					}
				}
			}
		}
	}
	JOINT RightUpLeg
	{
		OFFSET	-0.124023	-0.008373	-0.065224
		CHANNELS 3 Zrotation Xrotation Yrotation
		JOINT RightLeg
		{
			OFFSET	 0.000000	 0.000000	 0.570047
			CHANNELS 3 Zrotation Xrotation Yrotation
			JOINT RightFoot
			{
				OFFSET	 0.000000	 0.000000	 0.544354
				CHANNELS 3 Zrotation Xrotation Yrotation
				JOINT RightToeBase
				{
					OFFSET	 0.000000	 0.000000	 0.207540
					CHANNELS 3 Zrotation Xrotation Yrotation
					End Site
					{
						OFFSET	 0.000000	 0.000000	 0.207540
					}
				}
			}
		}
	}
	JOINT Spine
	{
		OFFSET	 0.000184	-0.007763	 0.117403
		CHANNELS 3 Zrotation Xrotation Yrotation
		JOINT Spine1
		{
			OFFSET	 0.000000	 0.000000	 0.137269
			CHANNELS 3 Zrotation Xrotation Yrotation
			JOINT Spine2
			{
				OFFSET	 0.000000	 0.000000	 0.156879
				CHANNELS 3 Zrotation Xrotation Yrotation
				JOINT LeftShoulder
				{
					OFFSET	 0.080501	-0.002496	 0.160144
					CHANNELS 3 Zrotation Xrotation Yrotation
					JOINT LeftArm
					{
						OFFSET	 0.000000	 0.000000	 0.164363
						CHANNELS 3 Zrotation Xrotation Yrotation
						JOINT LeftForeArm
						{
							OFFSET	 0.000000	 0.000000	 0.364576
							CHANNELS 3 Zrotation Xrotation Yrotation
							JOINT LeftHand
							{
								OFFSET	 0.000000	 0.000000	 0.360812
								CHANNELS 3 Zrotation Xrotation Yrotation
								JOINT LeftHandIndex1
								{
									OFFSET	 0.000000	 0.000000	 0.086006
									CHANNELS 3 Zrotation Xrotation Yrotation
									JOINT LeftHandIndex2
									{
										OFFSET	 0.000000	 0.000000	 0.047236
										CHANNELS 3 Zrotation Xrotation Yrotation
										JOINT LeftHandIndex3
										{
											OFFSET	-0.004284	-0.000551	 0.038166
											CHANNELS 3 Zrotation Xrotation Yrotation
											End Site
											{
												OFFSET	-0.004284	-0.000551	 0.038166
											}
										}
									}
								}
							}
						}
					}
				}
				JOINT Neck
				{
					OFFSET	 0.000000	 0.000000	 0.176489
					CHANNELS 3 Zrotation Xrotation Yrotation
					JOINT Head
					{
						OFFSET	 0.000000	-0.001747	 0.077940
						CHANNELS 3 Zrotation Xrotation Yrotation
						End Site
						{
							OFFSET	 0.000000	-0.001747	 0.077940
						}
					}
				}
				JOINT RightShoulder
				{
					OFFSET	-0.080363	 0.000306	 0.159706
					CHANNELS 3 Zrotation Xrotation Yrotation
					JOINT RightArm
					{
						OFFSET	 0.000000	 0.000000	 0.164196
						CHANNELS 3 Zrotation Xrotation Yrotation
						JOINT RightForeArm
						{
							OFFSET	 0.000000	 0.000000	 0.365611
							CHANNELS 3 Zrotation Xrotation Yrotation
							JOINT RightHand
							{
								OFFSET	 0.000000	 0.000000	 0.360648
								CHANNELS 3 Zrotation Xrotation Yrotation
								JOINT RightHandIndex1
								{
									OFFSET	 0.000000	 0.000000	 0.069977
									CHANNELS 3 Zrotation Xrotation Yrotation
									JOINT RightHandIndex2
									{
										OFFSET	 0.000000	 0.000000	 0.052305
										CHANNELS 3 Zrotation Xrotation Yrotation
										JOINT RightHandIndex3
										{
											OFFSET	 0.009002	-0.000782	 0.042196
											CHANNELS 3 Zrotation Xrotation Yrotation
											End Site
											{
												OFFSET	 0.009002	-0.000782	 0.042196
											}
										}
									}
								}
							}
						}
					}
				}
			}
		}
	}
}
MOTION
Frames:    13
Frame Time: 0.03333334
 3.755906	 6.533569	-0.486055	-114.466000	-2.311387	-1.134114	 7.250937	 20.055040	-176.767800	-3.578175	-11.633130	 1.467465	 3.489383	 84.295180	-0.171112	-2.307108	 39.180600	-0.253883	 4.860558	-35.608150	-177.953800	 1.532480	-44.213800	 5.439730	 103.169300	 89.860120	-97.256070	 2.372339	 30.844560	 0.054054	 23.995220	 3.551976	 2.351705	-1.135872	-1.500399	 0.790146	-1.170796	-3.991429	-0.630428	-91.776180	 78.527400	-180.000000	 35.598020	 60.592550	-53.621160	-29.759020	 19.057560	-47.483630	 3.870475	-2.094653	-5.368988	-3.812334	 37.924440	-2.927599	-2.450526	 36.184240	 0.754587	-1.378229	 35.397820	-2.634230	 1.215404	 2.151036	-4.950177	 0.997620	-9.141539	 3.383941	 89.782120	 78.203870	 180.000000	-38.086140	 71.948150	 35.587580	 25.505110	 12.058960	 35.476440	-13.485860	-3.249911	 9.563093	 6.437017	 35.671460	-0.771858	 2.830251	 35.756010	-7.813440	-2.350882	 35.473990	 5.254307
 3.690683	 6.565851	-0.488584	-113.805400	-1.905744	-1.316527	 7.520730	 23.042170	-177.337700	-3.298419	-11.620460	 1.565442	 4.449543	 84.245450	-0.669363	-2.257793	 43.180150	-0.364430	 5.160784	-36.068230	-177.429400	-0.222437	-38.245170	 3.701079	 152.756700	 89.388340	-147.565000	 2.360964	 32.702870	 0.096340	 27.884540	 3.263311	 2.071174	-1.235186	-1.669025	 0.649764	-1.183406	-4.137530	-0.695806	-91.776180	 78.527420	-180.000000	 36.647460	 60.699390	-54.964480	-27.790770	 16.526830	-47.765810	 3.749790	-2.115366	-5.365316	-3.812334	 37.924440	-2.927599	-2.450526	 36.184240	 0.754587	-1.378229	 35.397820	-2.634230	 1.233740	 2.107519	-5.010865	 1.052269	-9.319645	 4.090823	 89.782090	 78.203830	-180.000000	-36.376680	 72.917300	 33.625390	 23.903720	 9.194213	 33.259180	-14.102310	-3.270734	 9.548099	 6.437017	 35.671460	-0.771858	 2.830251	 35.756010	-7.813440	-2.350882	 35.473990	 5.254307
 3.619576	 6.602904	-0.491210	-113.094000	-2.046385	-1.318747	 8.040496	 26.329340	-178.755500	-2.340043	-11.592570	 1.761945	 5.579452	 82.177350	-0.729621	-2.197112	 46.981380	-0.481601	 4.856486	-35.282050	-177.554400	 0.742546	-38.382420	 4.192254	 116.647800	 89.724460	-110.873100	 2.369976	 31.256640	 0.063326	 31.075920	 3.130843	 1.864824	-1.330321	-1.719084	 0.379120	-1.077824	-4.031560	-0.799350	-91.776180	 78.527400	 180.000000	 38.495960	 61.619480	-55.971260	-26.209990	 13.442220	-46.218150	 3.772771	-2.119253	-5.364509	-3.812334	 37.924440	-2.927599	-2.450526	 36.184240	 0.754587	-1.378229	 35.397820	-2.634230	 1.343763	 2.187396	-5.083879	 1.167209	-9.411592	 4.684617	 89.782100	 78.203870	-180.000000	-35.158770	 73.561580	 32.293430	 21.645690	 6.421314	 30.805030	-14.775570	-3.295028	 9.529322	 6.437017	 35.671460	-0.771858	 2.830251	 35.756010	-7.813440	-2.350882	 35.473990	 5.254307
 3.534041	 6.649855	-0.493771	-112.110400	-2.233863	-1.180086	 8.886876	 29.945930	 178.792300	-1.080557	-11.561490	 1.957995	 5.808588	 76.263920	 0.413754	-2.115789	 50.936580	-0.620161	 4.192518	-32.995220	-178.448000	 3.209050	-41.725880	 5.966932	 6.358007	 88.557750	 0.674039	 2.382086	 28.953940	 0.012272	 33.738650	 2.771243	 1.680762	-1.513624	-1.746461	 0.014836	-0.840755	-3.656218	-1.017125	-91.776180	 78.527400	-180.000000	 41.018430	 63.352680	-55.968820	-24.259820	 9.558359	-42.579490	 3.959786	-2.106920	-5.366564	-3.812334	 37.924440	-2.927599	-2.450526	 36.184240	 0.754587	-1.378229	 35.397820	-2.634230	 1.559592	 2.768035	-5.112812	 1.333692	-9.578259	 5.084739	 89.782110	 78.203870	 180.000000	-33.109320	 74.040790	 29.745090	 18.607600	 3.560778	 28.139950	-15.323880	-3.314539	 9.512413	 6.437017	 35.671460	-0.771858	 2.830251	 35.756010	-7.813440	-2.350882	 35.473990	 5.254307
 3.455917	 6.693290	-0.491673	-110.788300	-2.540911	-1.059911	 8.971578	 31.159810	 176.839600	-1.287663	-14.400750	 1.851113	 4.523668	 66.992700	 1.005929	-2.122662	 50.638820	-0.609034	 2.588399	-30.670970	-179.205900	 4.854364	-45.212110	 6.720333	 3.585809	 85.121030	 3.202540	 2.392726	 26.347100	-0.043591	 35.408140	 2.432524	 1.302508	-1.699317	-1.655434	-0.215274	-0.795586	-3.414754	-1.181517	-91.776180	 78.527400	-180.000000	 43.510160	 65.455180	-55.844820	-21.903430	 5.592412	-37.332370	 4.784760	-2.112944	-5.364142	-3.812334	 37.924440	-2.927599	-2.450526	 36.184240	 0.754587	-1.378229	 35.397820	-2.634230	 1.678149	 3.061214	-4.938952	 1.418038	-9.344114	 5.028098	 89.782100	 78.203850	-180.000000	-32.000140	 74.173930	 28.362750	 15.572380	 1.251293	 25.965180	-15.347090	-3.326975	 9.504505	 6.437017	 35.671460	-0.771858	 2.830251	 35.756010	-7.813440	-2.350882	 35.473990	 5.254307
 3.388978	 6.737237	-0.483238	-109.605800	-2.785007	-1.340371	 7.595690	 18.782150	 175.064900	-1.277945	-40.138070	 1.384875	 2.386403	 60.754880	 0.495614	-2.249144	 43.782980	-0.382133	 1.480368	-28.245690	-179.674300	 5.658433	-48.020940	 7.032335	 3.522358	 84.154140	 2.804998	 2.404729	 21.492450	-0.143315	 36.640030	 2.126064	 1.704663	-1.740490	-1.575382	-0.281044	-0.795258	-2.972979	-1.217133	-91.776180	 78.527400	-180.000000	 44.462540	 67.937010	-54.741950	-19.114250	 1.744570	-30.546630	 6.065542	-2.138379	-5.355210	-3.812334	 37.924440	-2.927599	-2.450526	 36.184240	 0.754587	-1.378229	 35.397820	-2.634230	 1.638505	 2.931060	-4.734427	 1.367090	-8.776627	 4.592377	 89.782120	 78.203870	 180.000000	-33.043710	 73.670840	 30.074180	 11.552610	-0.995304	 23.542520	-15.395570	-3.334788	 9.498857	 6.437017	 35.671460	-0.771858	 2.830251	 35.756010	-7.813440	-2.350882	 35.473990	 5.254307
 3.323343	 6.778965	-0.475182	-108.161300	-3.197435	 1.401346	 7.222286	 9.233161	 170.440700	-3.577819	-58.345310	-2.289402	-0.414930	 54.677530	 1.122302	-2.362571	 32.699470	-0.094710	 0.401062	-22.652740	 176.671700	 6.965216	-46.829740	 6.978026	 2.389210	 85.414520	 4.277047	 2.407687	 17.612630	-0.220103	 36.329120	 3.007642	-1.251208	-1.815922	-1.789844	-0.884925	-0.491955	-3.752389	-1.260547	-91.776180	 78.527420	-180.000000	 42.815270	 70.394120	-51.525410	-16.645150	-0.916545	-24.187000	 6.693745	-2.210271	-5.332258	-3.812334	 37.924440	-2.927599	-2.450526	 36.184240	 0.754587	-1.378229	 35.397820	-2.634230	 1.414902	 2.915121	-4.573637	 1.127190	-8.623563	 3.841726	 89.782120	 78.203870	 180.000000	-35.352790	 72.507880	 33.901610	 6.920515	-2.990672	 21.160120	-15.394170	-3.335567	 9.498298	 6.437017	 35.671460	-0.771858	 2.830251	 35.756010	-7.813440	-2.350882	 35.473990	 5.254307
 3.264031	 6.814811	-0.468883	-106.780500	-3.145079	 2.692170	 4.701865	-0.310264	 169.710200	-6.176384	-70.701420	-7.251347	-1.151624	 60.521300	 0.375021	-2.344061	 35.231820	-0.154467	 0.252783	-18.357800	 174.715100	 7.581652	-45.222330	 6.869974	 0.185997	 87.667370	 6.903392	 2.407675	 17.737950	-0.217654	 35.475920	 2.964119	-2.525028	-1.896690	-1.898677	-1.117952	-0.882814	-4.338192	-1.142606	-91.776180	 78.527400	-180.000000	 40.526940	 71.821470	-48.417350	-13.848780	-2.567923	-19.122490	 6.554466	-2.275489	-5.313894	-3.812334	 37.924440	-2.927599	-2.450526	 36.184240	 0.754587	-1.378229	 35.397820	-2.634230	 1.135529	 2.982899	-4.394465	 0.904305	-9.104248	 3.176856	 89.782120	 78.203930	 180.000000	-37.826000	 70.942410	 39.144160	 2.248298	-4.785109	 19.028460	-15.371760	-3.334997	 9.498428	 6.437017	 35.671460	-0.771858	 2.830251	 35.756010	-7.813440	-2.350882	 35.473990	 5.254307
 3.208262	 6.846841	-0.465478	-106.491400	-3.145177	 3.078163	 2.244915	-8.472448	 170.722000	-6.377575	-75.831330	-9.182573	-1.053827	 68.216640	 0.041525	-2.306090	 39.276470	-0.256400	 0.652509	-14.925130	 173.758200	 7.496948	-44.593070	 6.788342	-122.550400	 89.832150	 129.821700	 2.407508	 18.479690	-0.203115	 34.365480	 3.156643	-2.877362	-1.520469	-1.910040	-0.926766	-1.131705	-4.595470	-0.764001	-91.776210	 78.527380	-180.000000	 38.087850	 72.334150	-44.466530	-9.324036	-4.013040	-16.793860	 6.862657	-2.286261	-5.308239	-3.812334	 37.924440	-2.927599	-2.450526	 36.184240	 0.754587	-1.378229	 35.397820	-2.634230	 0.745801	 2.983554	-4.090919	 0.575066	-9.089309	 2.045425	 89.782120	 78.203870	 180.000000	-38.875310	 69.146700	 43.099060	-2.317512	-6.476242	 18.139360	-15.188000	-3.319179	 9.510511	 6.437017	 35.671460	-0.771858	 2.830251	 35.756010	-7.813440	-2.350882	 35.473990	 5.254307
 3.145811	 6.878695	-0.466527	-106.458800	-2.842147	 4.491850	 0.693660	-15.352100	 171.309900	-9.634284	-75.272420	-13.076530	-2.151777	 77.899140	-0.559085	-2.286099	 41.018160	-0.303267	 0.686346	-11.241740	 172.045100	 7.214645	-44.352570	 6.234352	-173.330200	 87.658740	-179.798100	 2.405962	 20.548930	-0.162187	 32.055270	 3.246713	-4.597803	-0.913630	-1.936606	-0.920679	-1.445168	-5.167318	-0.208131	-91.776180	 78.527400	-180.000000	 37.331160	 72.419360	-41.132390	-4.246539	-5.953323	-20.331200	 6.307869	-2.246236	-5.324228	-3.812334	 37.924440	-2.927599	-2.450526	 36.184240	 0.754587	-1.378229	 35.397820	-2.634230	 0.302935	 3.019421	-3.743019	 0.239132	-8.756865	 1.181422	 89.782120	 78.203870	 180.000000	-39.167620	 66.769970	 45.947360	-6.826128	-8.944736	 22.489740	-14.171400	-3.274034	 9.545500	 6.437017	 35.671460	-0.771858	 2.830251	 35.756010	-7.813440	-2.350882	 35.473990	 5.254307
 3.090980	 6.905819	-0.473266	-106.672900	-2.539797	 5.433411	-0.341690	-21.249580	 171.932400	-12.132700	-70.240960	-15.383470	-3.788849	 83.780350	-1.346825	-2.276604	 41.778530	-0.324381	 0.626448	-8.653173	 170.962800	 6.852832	-44.450960	 5.679035	-174.655700	 85.447620	-178.938900	 2.404937	 21.346040	-0.146260	 28.924010	 3.256280	-5.647735	-0.360219	-2.197503	-0.941203	-1.353211	-5.484239	 0.182343	-91.776180	 78.527400	-180.000000	 35.538010	 72.884310	-36.935440	-0.660910	-8.382842	-24.197560	 5.504878	-2.198539	-5.341564	-3.812334	 37.924440	-2.927599	-2.450526	 36.184240	 0.754587	-1.378229	 35.397820	-2.634230	 0.031811	 3.025390	-3.575826	 0.041613	-8.530072	 1.029857	 89.782090	 78.203830	-180.000000	-38.447790	 64.638570	 46.967780	-10.207890	-12.118910	 27.398800	-12.933450	-3.224435	 9.578762	 6.437017	 35.671460	-0.771858	 2.830251	 35.756010	-7.813440	-2.350882	 35.473990	 5.254307
 3.035738	 6.931873	-0.479308	-106.660500	-2.098819	 6.080855	-0.571255	-25.164700	 172.534600	-10.829720	-61.891110	-12.995460	-5.024331	 86.664230	-1.748085	-2.278424	 41.635910	-0.320384	 0.803998	-5.217510	 170.122500	 6.537109	-42.863910	 5.068739	-174.742700	 83.828290	-179.031000	 2.403507	 22.235070	-0.128355	 24.761740	 3.186454	-6.373008	 0.031326	-2.559649	-0.949182	-1.203399	-5.956097	 0.421052	-91.776180	 78.527400	-180.000000	 32.783490	 73.521500	-32.327600	 2.324593	-11.274410	-27.529240	 4.991180	-2.167144	-5.351317	-3.812334	 37.924440	-2.927599	-2.450526	 36.184240	 0.754587	-1.378229	 35.397820	-2.634230	-0.008821	 3.130699	-3.530988	 0.002613	-8.946133	 1.091225	 89.782120	 78.203870	 180.000000	-37.374530	 62.794200	 47.637020	-12.804000	-16.009320	 32.419290	-11.849090	-3.192507	 9.597566	 6.437017	 35.671460	-0.771858	 2.830251	 35.756010	-7.813440	-2.350882	 35.473990	 5.254307
 2.975369	 6.958717	-0.484145	-106.185000	-1.453721	 6.729774	 0.108157	-27.479910	 173.139200	-8.279543	-50.390680	-8.524799	-3.639683	 86.377820	-3.473230	-2.286538	 40.981740	-0.302267	 1.053224	-0.644244	 169.259100	 6.145366	-39.329910	 4.144100	-176.240100	 83.260700	-177.832100	 2.402116	 22.958160	-0.113709	 19.232310	 2.581817	-7.126129	 0.162563	-2.991375	-0.970619	-1.289670	-6.677926	 0.516572	-91.776180	 78.527400	-180.000000	 29.995260	 73.925620	-28.335480	 5.767601	-14.377880	-29.448320	 5.005894	-2.154916	-5.354011	-3.812334	 37.924440	-2.927599	-2.450526	 36.184240	 0.754587	-1.378229	 35.397820	-2.634230	 0.141347	 3.384832	-3.677690	 0.118391	-9.993317	 1.443067	 89.782120	 78.203870	 180.000000	-36.284410	 61.218410	 48.554290	-14.768250	-20.528490	 37.240690	-10.917000	-3.194417	 9.597727	 6.437017	 35.671460	-0.771858	 2.830251	 35.756010	-7.813440	-2.350882	 35.473990	 5.254307
